<svg width="32" height="32" viewBox="0 0 32 32" fill="none" xmlns="http://www.w3.org/2000/svg">
<rect width="32" height="32" rx="6" fill="#717173" fill-opacity="0.1"/>
<path d="M13.0869 16C13.0869 14.3915 14.3912 13.0873 16.0006 13.0873C17.61 13.0873 18.915 14.3915 18.915 16C18.915 17.6084 17.61 18.9126 16.0006 18.9126C14.3912 18.9126 13.0869 17.6084 13.0869 16ZM11.5114 16C11.5114 18.4779 13.5212 20.4864 16.0006 20.4864C18.48 20.4864 20.4898 18.4779 20.4898 16C20.4898 13.5221 18.48 11.5135 16.0006 11.5135C13.5212 11.5135 11.5114 13.5221 11.5114 16ZM19.6184 11.3356C19.6183 11.543 19.6798 11.7457 19.795 11.9182C19.9102 12.0906 20.074 12.2251 20.2656 12.3045C20.4573 12.3839 20.6682 12.4048 20.8717 12.3644C21.0753 12.324 21.2622 12.2243 21.409 12.0777C21.5558 11.9311 21.6558 11.7443 21.6964 11.541C21.7369 11.3376 21.7162 11.1268 21.6369 10.9352C21.5576 10.7435 21.4232 10.5797 21.2507 10.4645C21.0782 10.3492 20.8754 10.2876 20.6679 10.2875H20.6675C20.3894 10.2877 20.1227 10.3981 19.926 10.5946C19.7292 10.7911 19.6186 11.0576 19.6184 11.3356V11.3356ZM12.4686 23.1119C11.6163 23.0731 11.153 22.9312 10.8451 22.8113C10.4369 22.6525 10.1457 22.4634 9.83951 22.1578C9.53331 21.8522 9.34377 21.5614 9.18557 21.1535C9.06555 20.8459 8.92357 20.3828 8.88482 19.5309C8.84244 18.61 8.83398 18.3333 8.83398 16C8.83398 13.6668 8.84314 13.3909 8.88482 12.4691C8.92364 11.6173 9.06667 11.155 9.18557 10.8466C9.34447 10.4387 9.53373 10.1476 9.83951 9.84159C10.1453 9.53557 10.4362 9.34615 10.8451 9.18804C11.1528 9.06809 11.6163 8.9262 12.4686 8.88748C13.3902 8.84512 13.667 8.83666 16.0006 8.83666C18.3342 8.83666 18.6113 8.84582 19.5336 8.88748C20.386 8.92627 20.8485 9.06921 21.1571 9.18804C21.5653 9.34615 21.8565 9.53599 22.1627 9.84159C22.4689 10.1472 22.6578 10.4387 22.8167 10.8466C22.9367 11.1541 23.0787 11.6173 23.1174 12.4691C23.1598 13.3909 23.1683 13.6668 23.1683 16C23.1683 18.3333 23.1598 18.6092 23.1174 19.5309C23.0786 20.3828 22.9359 20.8458 22.8167 21.1535C22.6578 21.5614 22.4685 21.8525 22.1627 22.1578C21.857 22.4631 21.5653 22.6525 21.1571 22.8113C20.8494 22.9313 20.386 23.0732 19.5336 23.1119C18.6121 23.1542 18.3353 23.1627 16.0006 23.1627C13.6659 23.1627 13.3899 23.1542 12.4686 23.1119V23.1119ZM12.3962 7.31561C11.4655 7.35797 10.8296 7.50545 10.2742 7.72144C9.699 7.94448 9.21207 8.24372 8.7255 8.72923C8.23893 9.21474 7.94028 9.70214 7.7171 10.277C7.50099 10.8324 7.35342 11.4676 7.31103 12.3978C7.26795 13.3294 7.25809 13.6272 7.25809 16C7.25809 18.3727 7.26795 18.6706 7.31103 19.6022C7.35342 20.5324 7.50099 21.1675 7.7171 21.7229C7.94028 22.2974 8.239 22.7854 8.7255 23.2707C9.212 23.756 9.699 24.0548 10.2742 24.2785C10.8306 24.4945 11.4655 24.642 12.3962 24.6843C13.3289 24.7267 13.6264 24.7372 16.0006 24.7372C18.3748 24.7372 18.6728 24.7274 19.605 24.6843C20.5357 24.642 21.1713 24.4945 21.727 24.2785C22.3018 24.0548 22.7891 23.7562 23.2757 23.2707C23.7623 22.7852 24.0603 22.2974 24.2841 21.7229C24.5002 21.1675 24.6485 20.5323 24.6902 19.6022C24.7325 18.6699 24.7424 18.3727 24.7424 16C24.7424 13.6272 24.7325 13.3294 24.6902 12.3978C24.6478 11.4676 24.5002 10.832 24.2841 10.277C24.0603 9.70249 23.7615 9.21551 23.2757 8.72923C22.7899 8.24295 22.3019 7.94448 21.7277 7.72144C21.1713 7.50545 20.5357 7.35727 19.6057 7.31561C18.6735 7.27325 18.3755 7.2627 16.0013 7.2627C13.6271 7.2627 13.3289 7.27255 12.3962 7.31561Z" fill="#171719" fill-opacity="0.6"/>
</svg>
