<svg width="24" height="24" viewBox="0 0 24 24" fill="none" xmlns="http://www.w3.org/2000/svg">
<path d="M9.05562 5C9.05562 3.34315 10.3739 2 12 2C13.6261 2 14.9444 3.34315 14.9444 5C14.9444 6.65685 13.6261 8 12 8C10.3739 8 9.05562 6.65685 9.05562 5Z" fill="#3C3C3C"/>
<path d="M10.6871 9H13.3129C14.5803 9 15.7054 9.82629 16.1062 11.0513L17.9489 16.6838C18.1607 17.3313 17.6877 18 17.0178 18H14.9444L14.1488 21.2425C14.0395 21.6877 13.647 22 13.1966 22H10.8034C10.353 22 9.96045 21.6877 9.85122 21.2425L9.05562 18H6.98221C6.31231 18 5.83928 17.3313 6.05112 16.6838L7.89379 11.0513C8.29457 9.82629 9.41973 9 10.6871 9Z" fill="#3C3C3C"/>
</svg>
