<svg width="24" height="24" viewBox="0 0 24 24" fill="none" xmlns="http://www.w3.org/2000/svg">
<path d="M17.7448 2.81281C18.7095 1.81633 20.3036 1.80344 21.2843 2.78418C22.2382 3.73806 22.2559 5.27903 21.3243 6.25463L18.5456 9.1644C18.3278 9.39247 18.219 9.50651 18.1518 9.64007C18.0924 9.7583 18.0571 9.88715 18.0478 10.0191C18.0374 10.1682 18.0728 10.3219 18.1438 10.6292L19.8717 18.1167C19.9444 18.4321 19.9808 18.5898 19.9691 18.7424C19.9587 18.8774 19.921 19.0089 19.8582 19.1289C19.7873 19.2645 19.6729 19.379 19.444 19.6079L19.0732 19.9786C18.4671 20.5848 18.164 20.8879 17.8538 20.9427C17.583 20.9906 17.3043 20.9249 17.0835 20.7609C16.8306 20.5731 16.695 20.1665 16.424 19.3532L14.4142 13.324L11.0689 16.6693C10.8692 16.869 10.7694 16.9688 10.7026 17.0864C10.6434 17.1905 10.6034 17.3045 10.5846 17.4228C10.5633 17.5563 10.5789 17.6967 10.61 17.9773L10.7937 19.6307C10.8249 19.9114 10.8405 20.0517 10.8192 20.1853C10.8004 20.3036 10.7604 20.4175 10.7012 20.5217C10.6344 20.6393 10.5346 20.7391 10.3349 20.9388L10.1374 21.1363C9.66434 21.6094 9.42781 21.8459 9.16496 21.9144C8.93442 21.9745 8.68999 21.9503 8.47571 21.8461C8.2314 21.7274 8.04585 21.4491 7.67475 20.8924L6.10643 18.54C6.04013 18.4405 6.00698 18.3908 5.96849 18.3457C5.9343 18.3056 5.89701 18.2683 5.85694 18.2341C5.81184 18.1956 5.76212 18.1625 5.66267 18.0962L3.31018 16.5279C2.75354 16.1568 2.47521 15.9712 2.35649 15.7269C2.25236 15.5126 2.22816 15.2682 2.28824 15.0377C2.35674 14.7748 2.59327 14.5383 3.06633 14.0652L3.26384 13.8677C3.46352 13.668 3.56337 13.5682 3.68095 13.5014C3.78511 13.4422 3.89906 13.4023 4.01736 13.3834C4.15089 13.3621 4.29123 13.3777 4.5719 13.4089L6.22529 13.5926C6.50596 13.6238 6.6463 13.6394 6.77983 13.6181C6.89813 13.5992 7.01208 13.5592 7.11624 13.5001C7.23382 13.4333 7.33366 13.3334 7.53335 13.1337L10.8787 9.78842L4.84939 7.77866C4.03616 7.50759 3.62955 7.37205 3.44176 7.11914C3.27777 6.8983 3.212 6.61967 3.2599 6.34881C3.31477 6.03861 3.61784 5.73554 4.22399 5.1294L4.59476 4.75863C4.82365 4.52973 4.9381 4.41529 5.07369 4.3444C5.1937 4.28165 5.3252 4.24394 5.46023 4.23354C5.61278 4.22179 5.77049 4.25818 6.0859 4.33097L13.545 6.05231C13.855 6.12384 14.01 6.1596 14.1596 6.14896C14.3041 6.13869 14.4446 6.09716 14.5714 6.02724C14.7028 5.95483 14.8134 5.84056 15.0347 5.61202L17.7448 2.81281Z" stroke="#A5A4A9" stroke-width="2" stroke-linecap="round" stroke-linejoin="round"/>
</svg>
