<svg width="32" height="32" viewBox="0 0 32 32" fill="none" xmlns="http://www.w3.org/2000/svg">
<rect width="32" height="32" rx="6" fill="#717173" fill-opacity="0.1"/>
<path d="M24.0942 10.8852C23.5659 11.1126 23.0104 11.2709 22.4416 11.3563C22.7075 11.3107 23.0988 10.832 23.2546 10.6382C23.4913 10.3459 23.6716 10.0123 23.7865 9.6542C23.7865 9.62761 23.8131 9.58962 23.7865 9.57062C23.7731 9.5633 23.7581 9.55947 23.7428 9.55947C23.7275 9.55947 23.7125 9.5633 23.6991 9.57062C23.0814 9.90512 22.424 10.1604 21.7425 10.3305C21.7187 10.3377 21.6934 10.3384 21.6694 10.3324C21.6453 10.3263 21.6233 10.3139 21.6057 10.2963C21.5527 10.2331 21.4956 10.1735 21.4347 10.1177C21.1568 9.86865 20.8414 9.66481 20.5001 9.51363C20.0395 9.32464 19.5419 9.2428 19.045 9.27427C18.5628 9.30472 18.0921 9.43405 17.662 9.6542C17.2386 9.88631 16.8664 10.2016 16.5678 10.5812C16.2538 10.9719 16.0271 11.4253 15.903 11.911C15.8006 12.3729 15.789 12.8504 15.8688 13.3167C15.8688 13.3965 15.8688 13.4079 15.8004 13.3965C13.0915 12.9976 10.8689 12.0364 9.05284 9.97334C8.97306 9.88216 8.93127 9.88216 8.86668 9.97334C8.07643 11.1739 8.46015 13.0736 9.44797 14.012C9.58095 14.1374 9.71772 14.2589 9.86209 14.3729C9.40919 14.3408 8.96734 14.218 8.56274 14.012C8.48675 13.9626 8.44496 13.9892 8.44116 14.0804C8.43039 14.2068 8.43039 14.3339 8.44116 14.4603C8.52043 15.0661 8.75919 15.6401 9.13301 16.1234C9.50683 16.6067 10.0023 16.982 10.5688 17.211C10.7069 17.2701 10.8507 17.3147 10.9981 17.344C10.5788 17.4265 10.1488 17.4394 9.72532 17.382C9.63414 17.363 9.59994 17.4124 9.63414 17.4997C10.1926 19.0195 11.4046 19.483 12.2936 19.7413C12.4152 19.7603 12.5368 19.7603 12.6736 19.7907C12.6736 19.7907 12.6736 19.7907 12.6508 19.8135C12.3886 20.2922 11.3286 20.6152 10.8423 20.7823C9.95467 21.1012 9.00828 21.223 8.06883 21.1395C7.92065 21.1167 7.88646 21.1205 7.84847 21.1395C7.81047 21.1585 7.84847 21.2003 7.89026 21.2383C8.08022 21.3636 8.27019 21.4738 8.46775 21.5802C9.0559 21.901 9.67769 22.1558 10.3218 22.3401C13.6576 23.2595 17.4113 22.5832 19.915 20.0947C21.8831 18.1418 22.5745 15.4481 22.5745 12.7506C22.5745 12.648 22.6999 12.5873 22.7721 12.5341C23.27 12.1461 23.709 11.688 24.0753 11.1739C24.1387 11.0973 24.1712 10.9997 24.1664 10.9004C24.1664 10.8434 24.1664 10.8548 24.0942 10.8852Z" fill="#171719" fill-opacity="0.6"/>
</svg>
