<svg width="32" height="32" viewBox="0 0 32 32" fill="none" xmlns="http://www.w3.org/2000/svg">
<rect width="32" height="32" rx="6" fill="#717173" fill-opacity="0.1"/>
<path d="M8.00006 23.3601L9.14802 19.0955C8.22222 17.4342 7.92808 15.4956 8.31959 13.6355C8.71109 11.7754 9.76198 10.1184 11.2794 8.96876C12.7968 7.81909 14.679 7.2538 16.5806 7.37662C18.4821 7.49944 20.2755 8.30213 21.6316 9.6374C22.9877 10.9727 23.8156 12.7509 23.9633 14.6459C24.111 16.5409 23.5687 18.4254 22.4358 19.9537C21.303 21.4821 19.6555 22.5516 17.7959 22.9662C15.9362 23.3807 13.9891 23.1124 12.3117 22.2106L8.00006 23.3601ZM12.5196 20.6147L12.7863 20.7725C14.0012 21.4908 15.4202 21.788 16.8222 21.6179C18.2242 21.4478 19.5304 20.8198 20.5373 19.8319C21.5441 18.844 22.195 17.5516 22.3886 16.1562C22.5822 14.7607 22.3076 13.3406 21.6075 12.1171C20.9075 10.8936 19.8213 9.93548 18.5183 9.392C17.2153 8.84852 15.7687 8.75024 14.4038 9.11246C13.039 9.47469 11.8326 10.2771 10.9727 11.3946C10.1128 12.5121 9.6476 13.882 9.64969 15.2907C9.64855 16.4588 9.97242 17.6042 10.5852 18.5996L10.7525 18.8746L10.1107 21.2548L12.5196 20.6147Z" fill="#171719" fill-opacity="0.6"/>
<path fill-rule="evenodd" clip-rule="evenodd" d="M18.9915 16.3858C18.8352 16.26 18.6521 16.1715 18.4563 16.127C18.2605 16.0824 18.0571 16.0831 17.8616 16.1288C17.5678 16.2505 17.378 16.7103 17.1882 16.9402C17.1481 16.9954 17.0893 17.034 17.0228 17.049C16.9562 17.0639 16.8864 17.0541 16.8266 17.0214C15.7511 16.6012 14.8496 15.8307 14.2685 14.835C14.219 14.7729 14.1955 14.694 14.2031 14.6149C14.2107 14.5359 14.2487 14.4629 14.3092 14.4112C14.5209 14.2022 14.6764 13.9433 14.7612 13.6584C14.78 13.3442 14.7078 13.0312 14.5533 12.7568C14.4338 12.372 14.2064 12.0295 13.8979 11.7695C13.7389 11.6982 13.5625 11.6742 13.39 11.7006C13.2176 11.727 13.0566 11.8026 12.9262 11.9183C12.7 12.113 12.5205 12.3558 12.4008 12.6288C12.2811 12.9019 12.2244 13.1983 12.2348 13.4961C12.2355 13.6634 12.2567 13.8299 12.298 13.992C12.403 14.3814 12.5644 14.7535 12.7771 15.0965C12.9306 15.3592 13.098 15.6135 13.2788 15.8583C13.8661 16.6625 14.6044 17.3454 15.4527 17.8689C15.8783 18.1349 16.3333 18.3513 16.8085 18.5136C17.3022 18.7368 17.8473 18.8225 18.3859 18.7615C18.6927 18.7152 18.9835 18.5943 19.2325 18.4096C19.4815 18.2249 19.6812 17.9819 19.814 17.7021C19.892 17.5331 19.9157 17.3441 19.8818 17.1611C19.8005 16.787 19.2988 16.5661 18.9915 16.3858Z" fill="#171719" fill-opacity="0.6"/>
</svg>
