<svg width="72" height="72" viewBox="0 0 72 72" fill="none" xmlns="http://www.w3.org/2000/svg">
<path d="M36 61.5686C51.4199 61.5686 63.9202 60.8388 63.9202 59.9385C63.9202 59.0383 51.4199 58.3085 36 58.3085C20.5801 58.3085 8.07983 59.0383 8.07983 59.9385C8.07983 60.8388 20.5801 61.5686 36 61.5686Z" fill="#F5F5F5"/>
<path d="M54.738 47.8827C63.2351 39.3855 63.2351 25.6088 54.738 17.1116C46.2408 8.61447 32.4641 8.61447 23.9669 17.1116C15.4697 25.6088 15.4697 39.3855 23.9669 47.8827C32.4641 56.3799 46.2408 56.3799 54.738 47.8827Z" fill="#326BF1"/>
<path opacity="0.7" d="M54.738 47.8827C63.2351 39.3855 63.2351 25.6088 54.738 17.1116C46.2408 8.61447 32.4641 8.61447 23.9669 17.1116C15.4697 25.6088 15.4697 39.3855 23.9669 47.8827C32.4641 56.3799 46.2408 56.3799 54.738 47.8827Z" fill="white"/>
<g opacity="0.2">
<path d="M60.6067 37.1736L60.2683 36.4248L59.0271 36.2895L58.032 35.6674L56.9923 35.1072L56.1283 33.8876L54.9317 32.8666L54.3355 34.5759L54.9663 35.5623L56.0275 36.1512L56.5632 37.26L57.4503 37.9426L58.4007 38.3501L58.0767 39.4935L57.744 40.729L57.5035 42.097L56.1802 42.0135L55.1981 42.781L54.1123 43.1727L53.0107 42.8343L52.0603 41.9847L50.8939 41.184L49.6109 40.5044L48.8909 39.2919L48.4229 38.2752L47.8311 37.2082L47.8095 35.9986L47.7792 34.7904L47.2493 33.745L46.8403 35.4946L46.4242 36.5559L46.4487 37.7252L46.0037 38.8167L45.4565 40.1127L45.1685 41.4087L45.9288 41.8767L47.1442 41.9688L46.1967 43.1295L45.3327 44.2037L44.4154 45.242L43.2634 46.1261L41.9443 46.6805L40.6714 47.3228L39.1997 47.5848L38.1442 48.6591L36.6711 48.9053L35.3477 49.5792L33.984 50.112L32.5195 50.1264L31.4971 49.6124L30.0427 49.5936L30.6749 48.4676L31.0205 47.4711L31.4525 46.0512L31.68 44.5392L31.968 43.0834L32.3683 41.8709L32.8363 40.6325L32.4043 39.2876L33.0264 38.0002L32.3208 36.9015L31.536 35.954L30.528 35.1764L29.8973 34.1165L29.4178 33.038L29.0664 31.8946L28.8879 30.6562L28.4659 29.3415L29.605 28.2658L30.2847 26.9568L31.4784 26.208L32.6218 26.3189L33.9178 26.4716L35.1965 26.725L36.5947 26.4975L37.6805 27.6336L39.0816 28.08L40.3301 28.8087L41.5699 29.556L42.8242 30.3005L43.7112 31.5476L45.0648 32.1596L46.3291 32.0156L47.5575 32.1293L48.7671 32.3914L50.2186 32.8536L49.7607 31.0767L49.3056 29.5877L48.384 29.1269L47.6295 28.1002L46.5437 27.6927L45.5357 27.2348L45.4075 26.1418L45.072 25.056L44.8099 23.904L43.4218 23.2474L41.9415 22.9263L40.6167 22.6728L39.649 23.3928L38.3789 23.4821L36.9807 23.6952L35.3967 22.3215L36.3557 21.397L36.3226 20.1341L36.9691 19.1765L38.4912 18.4925L39.5424 17.3175L40.7722 17.5781L41.9343 18.3125H43.3426L44.6775 17.7855L46.0714 17.9828L47.1715 17.365L47.9391 16.4348L48.7815 15.6024L50.0645 15.4196L51.2741 16.0157H52.5442L53.7264 16.2548L54.0763 16.4708C56.8801 19.0493 58.9586 22.318 60.1045 25.9507C61.2504 29.5834 61.4235 33.4531 60.6067 37.1736Z" fill="#326BF1"/>
<path d="M40.9809 48.6835L40.3444 49.5936L38.9505 49.896L37.8575 50.2906L39.4199 50.8061H40.7692L41.891 49.9579L42.0422 49.2898L40.9809 48.6835Z" fill="#326BF1"/>
<path d="M24.6801 48.528L24.6542 48.541C21.9582 46.0689 19.9279 42.958 18.7502 39.4949L18.6422 38.929L18.4622 38.5776C17.3743 34.8656 17.3017 30.9297 18.252 27.18L18.5155 28.1362L18.8323 29.4783L19.6344 30.7339L19.584 32.2013L20.268 33.4843L20.412 34.884L20.5012 36.036L20.3356 37.1765L19.6718 38.2407L20.0894 39.6216L20.7676 40.8125L21.1852 41.8435L21.3595 43.2634L22.0795 44.2541L22.3675 45.4695L23.1796 46.4155L23.7412 47.4912L24.6801 48.528Z" fill="#326BF1"/>
<path d="M42.5044 11.7432L41.6519 12.096L40.5633 12.721L39.4559 13.3085L38.3284 13.8341L37.0785 14.04L35.9049 14.4187L34.727 14.0271L33.5059 13.7722L32.3323 13.3258L31.1313 13.4511L29.8915 13.9968L28.8835 14.9515L28.103 16.1626L26.7004 16.6738L25.9617 17.9064L25.1611 18.9216L24.9595 20.2637L24.0062 21.2314L23.6015 22.464L22.762 23.4879L22.4279 24.6399L21.3436 24.4815L20.1513 24.2554L19.3334 23.9789C21.1953 19.6029 24.4391 15.9572 28.5689 13.5991C32.6987 11.241 37.4871 10.3003 42.202 10.921L42.5044 11.7432Z" fill="#326BF1"/>
</g>
<path d="M61.3641 25.3066C58.0608 28.1218 50.6534 27.0245 48.8505 26.4312C47.0476 25.8379 49.9276 26.159 51.3763 25.8552C52.8249 25.5514 53.3649 24.2914 55.5437 25.2792C57.7224 26.267 57.7152 26.555 58.6411 25.4693C59.567 24.3835 63.2361 23.7125 61.3641 25.3066Z" fill="white"/>
<path d="M17.8977 39.3552C19.9814 44.905 29.5617 48.4978 32.1019 48.9816C34.642 49.4654 30.9959 47.9448 29.4623 46.6286C27.9287 45.3125 28.1231 43.4419 24.8673 43.1726C21.6115 42.9034 21.4286 43.259 21.0412 41.3496C20.6539 39.4402 16.7169 36.2117 17.8977 39.3552Z" fill="white"/>
<path d="M33.0652 25.1021C27.2448 23.917 21.6979 20.4077 21.1838 18.4982C20.88 17.3722 21.718 18.5141 22.6641 18.8669C23.6102 19.2197 25.6392 17.9683 26.2152 19.4702C26.7912 20.9722 26.2987 21.7915 27.9028 22.333C29.507 22.8744 30.5424 22.1443 31.4596 23.4259C32.3769 24.7075 34.655 25.4261 33.0652 25.1021Z" fill="white"/>
<path d="M47.5445 44.4499C39.6159 43.9675 31.6152 40.3575 30.577 37.9253C29.965 36.4853 31.2884 37.8475 32.6074 38.137C33.9264 38.4264 36.3788 36.3917 37.4228 38.2723C38.4668 40.153 37.9656 41.3309 40.1904 41.7485C42.4152 42.1661 43.6464 41.004 45.1066 42.5304C46.5668 44.0568 49.7103 44.581 47.5445 44.4499Z" fill="white"/>
<path d="M52.5024 50.6549C49.0464 53.0438 42.3317 52.8754 41.0515 51.7954C40.297 51.1589 42.0322 51.1546 42.8818 51.0624C43.7314 50.9702 44.7926 49.2552 45.7992 50.1725C46.8058 51.0898 46.1981 51.6125 47.5747 51.2208C48.9514 50.8291 49.32 49.8154 50.5771 50.2646C51.8342 50.7139 53.6314 49.8744 52.5024 50.6549Z" fill="white"/>
<path d="M48.1593 19.1362C52.3353 20.2392 56.8368 19.2571 57.6057 17.8114C58.0593 16.9589 57.2443 17.6299 56.5301 17.5882C55.8158 17.5464 54.7315 15.7378 54.0101 16.812C53.2886 17.8863 53.4341 18.7675 52.2417 18.6466C51.0494 18.5256 50.5137 17.5248 49.6094 18.288C48.7051 19.0512 47.0189 18.8352 48.1593 19.1362Z" fill="white"/>
<path d="M27.7949 35.6774L27.1008 35.0842L28.4127 33.4181L29.1082 34.0114L27.7949 35.6774Z" fill="#7F3E3B"/>
<path d="M27.36 34.8034L28.1304 35.4384C28.1443 35.4495 28.1537 35.4652 28.1568 35.4827C28.16 35.5002 28.1568 35.5182 28.1477 35.5335L27.7387 36.2535C27.728 36.2707 27.7138 36.2856 27.6971 36.297C27.6803 36.3084 27.6612 36.3161 27.6413 36.3196C27.6213 36.3232 27.6008 36.3224 27.5811 36.3175C27.5614 36.3125 27.543 36.3035 27.527 36.2909C27.2549 36.0562 26.8675 35.7149 26.519 35.4269C26.1115 35.0899 26.1389 35.1389 25.655 34.7458C25.367 34.5067 25.5413 34.1597 25.6853 34.2346C26.3419 34.573 26.4053 34.6133 27.1368 34.7242C27.2171 34.7293 27.2944 34.7567 27.36 34.8034Z" fill="#263238"/>
<path opacity="0.2" d="M28.4127 33.4195L27.7373 34.2778L28.4314 34.871L29.1082 34.0114L28.4127 33.4195Z" fill="black"/>
<path d="M33.0537 30.8822C37.836 31.2293 39.0701 32.1667 41.2862 31.379L41.495 29.3126L38.6395 28.2312C38.6395 28.2312 35.195 27.756 32.5382 28.4645C29.7763 29.2003 27.8971 33.6211 27.8971 33.6211L29.0894 34.4851C29.0894 34.4851 30.0053 31.9378 33.0537 30.8822Z" fill="black"/>
<path d="M27.9605 33.1848L27.6566 33.7507L28.8936 34.7947L29.3198 34.3743L27.9605 33.1848Z" fill="#263238"/>
<path d="M28.4443 45.2333L24.1819 44.5867C23.8149 44.5306 23.4642 44.3963 23.1535 44.1928C22.8429 43.9894 22.5796 43.7216 22.3815 43.4075C22.1834 43.0935 22.055 42.7405 22.0052 42.3725C21.9553 42.0046 21.9851 41.6302 22.0925 41.2747C22.2015 40.9194 22.3856 40.5917 22.6324 40.3138C22.8792 40.0359 23.1828 39.8143 23.5228 39.6641C23.8627 39.5138 24.231 39.4385 24.6026 39.4431C24.9742 39.4477 25.3405 39.5321 25.6767 39.6907L29.5747 41.5325C29.8076 41.6426 29.993 41.8329 30.0972 42.0684C30.2014 42.304 30.2173 42.5692 30.1421 42.8155L29.6309 44.4917C29.5546 44.7368 29.3929 44.9465 29.1752 45.0826C28.9574 45.2186 28.6981 45.2721 28.4443 45.2333Z" fill="#326BF1"/>
<path opacity="0.4" d="M28.4443 45.2333L24.1819 44.5867C23.8149 44.5306 23.4642 44.3963 23.1535 44.1928C22.8429 43.9894 22.5796 43.7216 22.3815 43.4075C22.1834 43.0935 22.055 42.7405 22.0052 42.3725C21.9553 42.0046 21.9851 41.6302 22.0925 41.2747C22.2015 40.9194 22.3856 40.5917 22.6324 40.3138C22.8792 40.0359 23.1828 39.8143 23.5228 39.6641C23.8627 39.5138 24.231 39.4385 24.6026 39.4431C24.9742 39.4477 25.3405 39.5321 25.6767 39.6907L29.5747 41.5325C29.8076 41.6426 29.993 41.8329 30.0972 42.0684C30.2014 42.304 30.2173 42.5692 30.1421 42.8155L29.6309 44.4917C29.5546 44.7368 29.3929 44.9465 29.1752 45.0826C28.9574 45.2186 28.6981 45.2721 28.4443 45.2333Z" fill="black"/>
<path d="M27.108 33.7781C27.8971 33.9494 29.0491 34.0661 29.268 33.6715C30.5481 31.343 32.436 27.6235 32.8478 26.7912C32.9112 26.6674 32.8334 26.555 32.6289 26.4672L29.8339 25.2619C29.2492 25.0474 28.5379 25.236 28.0022 25.4419C24.7147 26.7149 18.6336 29.3299 17.2339 30.3811C18.72 31.7405 24.4238 33.1934 27.108 33.7781Z" fill="#326BF1"/>
<path opacity="0.2" d="M27.108 33.7781C27.8971 33.9494 29.0491 34.0661 29.268 33.6715C30.5481 31.343 32.436 27.6235 32.8478 26.7912C32.9112 26.6674 32.8334 26.555 32.6289 26.4672L29.8339 25.2619C29.2492 25.0474 28.5379 25.236 28.0022 25.4419C24.7147 26.7149 18.6336 29.3299 17.2339 30.3811C18.72 31.7405 24.4238 33.1934 27.108 33.7781Z" fill="black"/>
<path d="M51.1474 37.4112C51.4555 37.4184 51.7911 37.3392 51.5175 37.0512C49.8773 35.3319 47.2219 32.6045 46.6315 31.9997C46.5464 31.9103 46.4383 31.846 46.3191 31.8139L44.7351 31.3906C44.4341 31.3258 44.4384 31.5475 44.4946 31.7563C44.8416 33.0437 45.6984 35.5983 46.2658 36.4867C47.7 37.188 50.1019 37.3853 51.1474 37.4112Z" fill="#326BF1"/>
<path opacity="0.2" d="M51.1474 37.4112C51.4555 37.4184 51.7911 37.3392 51.5175 37.0512C49.8773 35.3319 47.2219 32.6045 46.6315 31.9997C46.5464 31.9103 46.4383 31.846 46.3191 31.8139L44.7351 31.3906C44.4341 31.3258 44.4384 31.5475 44.4946 31.7563C44.8416 33.0437 45.6984 35.5983 46.2658 36.4867C47.7 37.188 50.1019 37.3853 51.1474 37.4112Z" fill="black"/>
<path d="M24.84 26.1159C24.395 26.0179 23.9544 25.9272 23.5325 25.8466L23.5598 25.7026C23.9832 25.7832 24.4238 25.8739 24.8702 25.9719L24.84 26.1159Z" fill="#326BF1"/>
<path d="M22.4828 25.6565C20.932 25.3778 19.3609 25.2275 17.7855 25.2072C17.1522 25.2046 16.5193 25.2407 15.8904 25.3152L15.8732 25.1712C16.5079 25.0974 17.1465 25.0613 17.7855 25.0632C19.3691 25.084 20.9483 25.2347 22.5072 25.5139L22.4828 25.6565Z" fill="#326BF1"/>
<path d="M12.6562 26.7178C19.4587 22.5418 37.8562 30.9442 47.7605 33.1373C52.3599 34.1568 49.5447 37.8979 47.34 38.3875C45.1354 38.8771 18.1282 40.6915 9.2477 36.6595C0.367215 32.6275 9.4709 28.6762 12.6562 26.7178Z" fill="#326BF1"/>
<path d="M46.7726 38.4768C47.9407 38.3906 49.0581 37.9651 49.9877 37.2527C50.9173 36.5403 51.6186 35.5719 52.0056 34.4664C52.7573 32.3683 53.2901 30.8664 53.2901 30.8664C52.7019 30.5292 52.0401 30.3408 51.3625 30.3177C50.6849 30.2946 50.0119 30.4375 49.4021 30.7339L44.3059 33.2136L46.7726 38.4768Z" fill="#326BF1"/>
<path opacity="0.2" d="M46.5264 35.532C46.8676 36.3831 47.8526 37.3939 48.5798 38.0607C49.3519 37.7496 50.0493 37.2785 50.626 36.6783L46.5264 35.532Z" fill="black"/>
<path opacity="0.2" d="M49.4453 36.2045C48.5316 36.29 47.6138 36.3222 46.6964 36.301C45.7776 36.2851 44.8589 36.2103 43.9431 36.1167C43.0272 36.0231 42.1157 35.8776 41.2071 35.7221C37.5711 35.0698 34.0157 34.0157 30.5093 32.8119C29.6324 32.5123 28.7568 32.2027 27.8741 31.8903C27.4292 31.7376 26.9943 31.5807 26.5219 31.4367C26.2757 31.3733 26.0324 31.2927 25.7804 31.2466L25.4016 31.1775C25.2761 31.152 25.1491 31.1337 25.0215 31.1227C23.9918 31.0061 22.9493 31.0842 21.9485 31.3531C21.4547 31.4928 20.9732 31.6725 20.5085 31.8903C20.0464 32.1083 19.6021 32.3621 19.1794 32.6491L18.864 32.8709L18.5602 33.1042L18.2722 33.3418C18.1887 33.4123 18.1037 33.4858 18.0159 33.552C17.6732 33.8285 17.3132 34.0949 16.9474 34.3527C16.2118 34.866 15.4489 35.339 14.6621 35.7696C13.8928 36.1977 13.0906 36.5637 12.2631 36.864C11.8782 37.0046 11.4822 37.113 11.0794 37.188C10.9671 37.2082 10.8562 37.224 10.7496 37.2327C11.9539 37.6095 13.1821 37.9054 14.426 38.1183C14.8335 37.9109 15.2295 37.6863 15.6197 37.4587C16.4518 36.966 17.2556 36.4271 18.0274 35.8445C18.4148 35.5565 18.7935 35.2498 19.165 34.9301C19.2572 34.8509 19.3493 34.7674 19.44 34.6867L19.6848 34.4693L19.9268 34.2691L20.1788 34.0776C20.5187 33.8298 20.8769 33.6079 21.2501 33.4138C21.6204 33.2236 22.0057 33.0642 22.4021 32.9371C23.1981 32.693 24.0329 32.6006 24.8631 32.665C24.9674 32.6694 25.0713 32.681 25.1741 32.6995L25.4852 32.7427C25.6925 32.7773 25.897 32.8363 26.1029 32.8867C26.5263 32.9991 26.9669 33.1402 27.4133 33.2755C28.3004 33.5535 29.1931 33.8357 30.0888 34.1079C33.6715 35.1965 37.3219 36.1411 41.0515 36.6739C41.9847 36.8007 42.9235 36.9101 43.8595 36.9807C44.7955 37.0512 45.7431 37.0858 46.6892 37.0685C47.6365 37.0567 48.5824 36.9884 49.5216 36.864C49.8922 36.8131 50.2603 36.7522 50.6261 36.6811C50.8517 36.452 51.0579 36.2044 51.2424 35.941C50.6492 36.0562 50.0487 36.144 49.4453 36.2045Z" fill="white"/>
<path opacity="0.2" d="M33.313 38.4768C33.313 38.4768 26.5594 38.4408 20.1413 37.8288C19.9973 37.8144 19.584 37.0843 19.1448 36.9029C19.0973 37.4098 19.1866 37.7323 18.9317 37.705C15.2194 37.3032 10.7237 36.383 8.96977 35.4528C8.07697 32.2589 6.10849 31.2984 6.10849 31.2984C4.87873 32.9414 5.13217 34.7933 9.24769 36.6581C18.1282 40.6901 45.1354 38.8757 47.34 38.3861L33.313 38.4768Z" fill="black"/>
<path d="M20.1428 35.761C19.9364 35.7619 19.7352 35.8262 19.5665 35.9452C19.3978 36.0642 19.2697 36.232 19.1995 36.4262C19.1293 36.6203 19.1204 36.8313 19.174 37.0306C19.2275 37.23 19.341 37.4081 19.4991 37.5408C23.9386 41.1149 32.233 46.8115 34.2879 48.2155C34.6005 48.4276 34.9526 48.5745 35.3233 48.6475L40.3632 49.6253C40.9666 49.7419 41.2057 49.4035 40.9522 48.9197C39.3855 45.9317 35.7768 39.8635 33.6817 37.8043C29.0017 36.1771 23.3885 35.8186 20.1428 35.761Z" fill="#326BF1"/>
<path opacity="0.2" d="M33.6528 47.016L20.0836 36.4709C19.6401 36.1267 18.9936 36.5602 19.1764 37.0901C19.239 37.2679 19.3509 37.4242 19.499 37.5408C23.9385 41.1149 32.2329 46.8115 34.2878 48.2155C34.6004 48.4276 34.9525 48.5745 35.3232 48.6475L40.3632 49.6253C40.6656 49.6843 40.8758 49.6253 40.9795 49.4971L36.4507 48.3783C35.4333 48.1242 34.4802 47.6602 33.6528 47.016Z" fill="black"/>
<path d="M46.1275 34.7688C46.0555 34.7786 45.9883 34.8105 45.9352 34.8602C45.8822 34.91 45.8459 34.9749 45.8315 35.0462C45.8171 35.1175 45.8253 35.1914 45.8548 35.2578C45.8844 35.3243 45.9339 35.3798 45.9965 35.4168C47.7158 36.4248 50.8766 37.9714 51.66 38.3515C51.779 38.4086 51.9083 38.441 52.0402 38.4466L53.8344 38.5258C54.049 38.5359 54.1152 38.4063 54.0014 38.2522C53.3074 37.2989 51.7478 35.3851 50.9184 34.7803C49.2134 34.4578 47.2536 34.6219 46.1275 34.7688Z" fill="#326BF1"/>
<path opacity="0.2" d="M51.3792 37.9685L46.1434 35.0165C46.1062 34.9959 46.0635 34.9876 46.0213 34.9928C45.9792 34.9979 45.9397 35.0162 45.9086 35.0451C45.8774 35.074 45.8562 35.112 45.848 35.1537C45.8397 35.1953 45.8448 35.2386 45.8626 35.2771C45.8918 35.3374 45.9385 35.3876 45.9965 35.4211C47.7159 36.4291 50.8767 37.9757 51.66 38.3559C51.779 38.413 51.9083 38.4453 52.0402 38.4509L53.8344 38.5301C53.8725 38.5377 53.912 38.5348 53.9485 38.5216C53.9851 38.5084 54.0173 38.4854 54.0418 38.4552L52.416 38.2954C52.0514 38.2602 51.6981 38.1488 51.3792 37.9685Z" fill="black"/>
<path d="M13.0017 26.5234C12.8837 26.5839 12.7685 26.6487 12.6561 26.7178C12.2241 26.9799 11.7 27.2765 11.1211 27.6048C11.3904 28.3795 12.24 29.2839 13.3185 30.096L15.3129 28.5667C14.3136 27.936 13.464 27.2059 13.0017 26.5234Z" fill="white"/>
<path d="M16.0244 28.9814L14.246 30.7253C14.6991 31.0104 15.1689 31.2681 15.6529 31.4971C15.8019 31.5664 15.9635 31.6044 16.1278 31.6088C16.2921 31.6131 16.4555 31.5838 16.608 31.5225C16.7605 31.4612 16.8988 31.3694 17.0144 31.2526C17.13 31.1357 17.2204 30.9965 17.2801 30.8434C17.3897 30.5611 17.3887 30.2478 17.2774 29.9661C17.1661 29.6845 16.9526 29.4552 16.6796 29.3242C16.4621 29.2162 16.2418 29.101 16.0244 28.9814Z" fill="white"/>
<path d="M54.8064 34.272C58.1947 34.992 66.9326 36.432 62.4643 31.0723C67.6339 36.3442 62.1403 37.1405 57.4243 37.4083C56.9853 37.4338 56.5463 37.3595 56.14 37.1912C55.7338 37.0229 55.3709 36.7648 55.0786 36.4363C54.7338 36.0494 54.4221 35.6342 54.1469 35.195C54.0845 35.0918 54.0538 34.9725 54.0584 34.8519C54.0631 34.7314 54.103 34.6148 54.1731 34.5167C54.2432 34.4185 54.3406 34.343 54.4531 34.2995C54.5657 34.2561 54.6885 34.2465 54.8064 34.272Z" fill="#326BF1"/>
<path opacity="0.2" d="M54.8064 34.272C58.1947 34.992 66.9326 36.432 62.4643 31.0723C67.6339 36.3442 62.1403 37.1405 57.4243 37.4083C56.9853 37.4338 56.5463 37.3595 56.14 37.1912C55.7338 37.0229 55.3709 36.7648 55.0786 36.4363C54.7338 36.0494 54.4221 35.6342 54.1469 35.195C54.0845 35.0918 54.0538 34.9725 54.0584 34.8519C54.0631 34.7314 54.103 34.6148 54.1731 34.5167C54.2432 34.4185 54.3406 34.343 54.4531 34.2995C54.5657 34.2561 54.6885 34.2465 54.8064 34.272Z" fill="white"/>
<path d="M41.9487 17.8978C41.9792 18.123 41.9197 18.3512 41.7831 18.5328C41.5988 18.7719 41.3238 18.6509 41.223 18.3888C41.1322 18.1483 41.1178 17.7351 41.377 17.5911C41.4337 17.5609 41.4969 17.5452 41.561 17.5453C41.6251 17.5455 41.6883 17.5614 41.7448 17.5917C41.8013 17.622 41.8495 17.6658 41.8851 17.7192C41.9206 17.7726 41.9425 17.8339 41.9487 17.8978Z" fill="#7F3E3B"/>
<path opacity="0.2" d="M41.9487 17.8978C41.9792 18.123 41.9197 18.3512 41.7831 18.5328C41.5988 18.7719 41.3238 18.6509 41.223 18.3888C41.1322 18.1483 41.1178 17.7351 41.377 17.5911C41.4337 17.5609 41.4969 17.5452 41.561 17.5453C41.6251 17.5455 41.6883 17.5614 41.7448 17.5917C41.8013 17.622 41.8495 17.6658 41.8851 17.7192C41.9206 17.7726 41.9425 17.8339 41.9487 17.8978Z" fill="black"/>
<path d="M41.4721 17.9827C40.8773 17.7509 41.4087 16.4866 42.0481 16.5226C42.1345 16.0186 43.0388 15.9927 43.6321 16.3195C44.1039 16.5845 44.4897 16.9793 44.7437 17.4571C45.1685 18.1671 45.8842 18.2333 45.841 18.4882C45.7834 18.8208 45.1081 18.3543 44.8978 18.4623C44.6876 18.5703 45.8338 18.8007 45.8223 19.1477C45.8108 19.4947 45.0663 19.0541 44.833 18.9591C44.5997 18.864 44.4197 19.0613 44.9569 19.3767C45.6639 19.7899 45.2521 20.0002 44.9713 19.7899C44.4212 19.3752 43.8365 19.5365 44.2628 19.908C44.689 20.2795 44.1908 20.4063 43.861 20.0045C43.5313 19.6027 43.285 20.2925 42.601 19.7467C41.917 19.201 41.6909 19.008 41.4721 17.9827Z" fill="#263238"/>
<path d="M30.7167 37.6416L29.2623 39.1867L28.5581 38.4566L30.0125 36.913L30.7167 37.6416Z" fill="#7F3E3B"/>
<path d="M28.8072 38.2781L29.6568 38.7979C29.672 38.8065 29.6834 38.8204 29.6887 38.8369C29.694 38.8535 29.6929 38.8714 29.6856 38.8872L29.3458 39.6346C29.3373 39.6536 29.3248 39.6706 29.3091 39.6843C29.2934 39.698 29.275 39.7082 29.255 39.714C29.235 39.7199 29.214 39.7214 29.1933 39.7184C29.1727 39.7153 29.153 39.7079 29.1356 39.6965C28.8317 39.5035 28.7496 39.4214 28.3637 39.1853C27.913 38.9102 27.5962 38.8642 27.0591 38.556C26.7336 38.3702 26.8647 38.0088 27.0202 38.0578C27.517 38.2018 28.2687 38.2896 28.5754 38.2205C28.6572 38.209 28.7403 38.2296 28.8072 38.2781Z" fill="#263238"/>
<path opacity="0.2" d="M30.7166 37.643L29.9664 38.4394L29.2622 37.7093L30.011 36.913L30.7166 37.643Z" fill="black"/>
<path d="M35.6904 33.9552C38.5502 32.3467 43.5744 32.9083 43.5744 29.9981L40.4064 28.8965C40.4064 28.8965 36.2304 29.988 34.1395 31.86C31.9637 33.8069 29.5315 37.044 29.5315 37.044L30.5539 38.1038C30.5539 38.1038 33.264 36.0835 35.6904 33.9552Z" fill="#263238"/>
<path d="M29.5172 36.697L29.196 37.2485L30.4632 38.3083L30.9111 37.9022L29.5172 36.697Z" fill="white"/>
<path d="M41.0112 22.0507C40.6958 22.1703 40.3934 22.2624 40.0809 22.3575C39.7685 22.4525 39.456 22.5317 39.1349 22.6023C38.8103 22.6778 38.482 22.7364 38.1513 22.7779C37.7904 22.83 37.4246 22.8401 37.0613 22.8082H37.0253C36.933 22.7984 36.8448 22.7652 36.7689 22.7117C36.625 22.6114 36.5067 22.4787 36.4233 22.3243C36.3534 22.2019 36.3047 22.0685 36.2793 21.9298C36.2442 21.7198 36.2403 21.5058 36.2678 21.2947C36.3128 20.947 36.3968 20.6055 36.5184 20.2767C36.6283 19.9677 36.7557 19.6653 36.9 19.3709C37.044 19.0829 37.188 18.7949 37.3665 18.5184C37.4106 18.4458 37.4798 18.392 37.5611 18.3671C37.6423 18.3423 37.7298 18.3483 37.8069 18.3839C37.884 18.4195 37.9453 18.4823 37.9791 18.5602C38.0129 18.6382 38.0168 18.7258 37.9901 18.8064V18.8165C37.9022 19.1045 37.8101 19.3925 37.7337 19.6906C37.6574 19.9887 37.5811 20.2666 37.5249 20.5546C37.4669 20.8231 37.4341 21.0964 37.427 21.3711C37.4238 21.4712 37.4359 21.5712 37.463 21.6677C37.4702 21.6792 37.4731 21.6994 37.4789 21.7008C37.4846 21.7023 37.4789 21.7152 37.4875 21.7008C37.4812 21.6829 37.469 21.6677 37.4529 21.6576L37.1649 21.5568C37.4292 21.5518 37.6925 21.5219 37.9512 21.4675C38.2392 21.4128 38.5272 21.3437 38.8152 21.2659C39.1032 21.1882 39.3912 21.1047 39.6864 21.0154C39.9816 20.9261 40.271 20.8311 40.5504 20.7432H40.5605C40.7326 20.6875 40.9197 20.7014 41.0818 20.7819C41.2438 20.8624 41.3679 21.0031 41.4276 21.1739C41.4872 21.3448 41.4776 21.5321 41.4009 21.696C41.3242 21.8599 41.1863 21.9872 41.0169 22.0507H41.0112Z" fill="#7F3E3B"/>
<path d="M37.764 19.2701L38.6539 18.8928L37.9138 18.0648C37.9138 18.0648 37.0814 18.4767 37.2888 18.9677L37.764 19.2701Z" fill="#7F3E3B"/>
<path d="M39.0068 18.2707L38.6857 17.8891C38.6464 17.8418 38.5919 17.8095 38.5314 17.798C38.471 17.7864 38.4084 17.7962 38.3545 17.8258L37.9138 18.0648L38.654 18.8928L38.965 18.6523C38.9934 18.6304 39.0171 18.603 39.0346 18.5718C39.0521 18.5405 39.0632 18.506 39.0671 18.4704C39.071 18.4348 39.0676 18.3987 39.0573 18.3644C39.0469 18.3301 39.0297 18.2982 39.0068 18.2707Z" fill="#7F3E3B"/>
<path d="M41.1351 20.448C40.2394 20.3299 38.798 21.1882 38.798 21.1882C38.8102 21.8619 38.9298 22.5293 39.1522 23.1653C39.699 23.0827 40.2266 22.9033 40.7103 22.6354C40.9781 22.4943 42.1921 20.592 41.1351 20.448Z" fill="#F0F0F0"/>
<path d="M41.04 20.4379C42.236 20.5532 43.4132 20.8153 44.545 21.2184C44.8048 21.3171 45.0265 21.4958 45.1779 21.7288C45.3294 21.9618 45.4027 22.237 45.3874 22.5144C45.2751 25.0903 44.786 27.6359 43.9359 30.0701C43.429 30.0888 41.2517 29.8771 40.1919 29.4941C40.0752 29.4523 40.0277 28.9383 40.0277 28.9383C39.84 28.9292 39.6525 28.9581 39.4762 29.0232C39.1167 28.8461 38.8076 28.5811 38.5776 28.2528C39.0975 27.4306 39.3423 25.5427 39.4949 23.9458C39.5122 23.3165 39.5396 22.1731 39.8376 21.5323C40.1084 20.929 40.3661 20.3861 41.04 20.4379Z" fill="white"/>
<path d="M41.904 22.2264C41.8852 22.2826 41.8406 22.3186 41.8075 22.3056C41.7744 22.2926 41.76 22.2394 41.7787 22.1846C41.7974 22.1299 41.842 22.0925 41.8766 22.1054C41.9112 22.1184 41.9184 22.176 41.904 22.2264Z" fill="#326BF1"/>
<path d="M43.4318 19.1606C43.3253 19.8374 43.2346 20.6323 43.5845 21.1392C43.2792 21.5381 42.6082 21.8246 41.9515 21.9485C41.5685 21.4301 41.6491 20.9635 41.8522 20.7029C42.2467 20.4581 42.2136 20.0462 42.2179 19.7611L43.4318 19.1606Z" fill="#7F3E3B"/>
<path d="M41.9515 21.9485C41.8743 21.8303 41.8283 21.6946 41.8176 21.5539C41.8176 21.348 41.446 21.4618 41.446 21.4618C41.5704 21.6643 41.7444 21.8318 41.9515 21.9485Z" fill="#E0E0E0"/>
<path d="M41.9515 21.9485C41.9762 21.8762 42.0224 21.8131 42.0839 21.7678C42.1454 21.7225 42.2193 21.6971 42.2957 21.695C42.4759 21.6828 42.6565 21.7114 42.8242 21.7786C42.8242 21.7786 42.3029 21.9802 41.9515 21.9485Z" fill="#E0E0E0"/>
<path opacity="0.2" d="M43.1439 19.4213C43.1525 19.3781 43.1583 19.3349 43.1626 19.2931L42.218 19.7626C42.2309 19.9598 42.2084 20.1578 42.1517 20.3472C42.5924 20.2104 43.0719 19.8302 43.1439 19.4213Z" fill="black"/>
<path d="M43.956 18.288C43.5917 19.1174 43.4189 19.6214 42.8314 19.895C41.9458 20.3069 41.0429 19.5206 41.1538 18.599C41.2532 17.7667 41.8335 16.5514 42.7868 16.5269C42.9979 16.5216 43.2069 16.57 43.3942 16.6675C43.5816 16.765 43.7411 16.9085 43.8579 17.0844C43.9748 17.2603 44.045 17.4631 44.0622 17.6736C44.0793 17.884 44.0428 18.0955 43.956 18.288Z" fill="#7F3E3B"/>
<path d="M42.1518 16.6075C42.0193 17.1519 43.5846 17.424 43.5846 17.424C43.5846 17.424 42.7306 18.864 43.7286 18.8021C44.7265 18.7402 44.7783 17.5407 44.0036 16.8063C43.4593 16.2907 42.5406 16.1136 42.1518 16.6075Z" fill="#263238"/>
<path d="M41.5844 18.697C41.9305 18.7119 42.2743 18.7601 42.6111 18.841C42.5354 18.9624 42.4215 19.0553 42.2873 19.1051C42.1531 19.1549 42.0061 19.1587 41.8695 19.116C41.8219 19.1102 41.7761 19.0942 41.7351 19.0692C41.6941 19.0442 41.659 19.0108 41.632 18.9711C41.605 18.9314 41.5868 18.8865 41.5786 18.8392C41.5704 18.7919 41.5724 18.7434 41.5844 18.697Z" fill="#263238"/>
<path d="M42.0941 18.9821C41.9471 18.9425 41.7913 18.9506 41.6492 19.0051C41.7076 19.0677 41.7851 19.1092 41.8695 19.1232C42.0159 19.1629 42.1711 19.1554 42.313 19.1016C42.2553 19.0386 42.1783 18.9966 42.0941 18.9821Z" fill="#FF5652"/>
<path d="M41.616 18.6984C41.6135 18.7284 41.6205 18.7585 41.636 18.7843C41.6515 18.8102 41.6747 18.8305 41.7024 18.8424C41.9248 18.8887 42.1507 18.9161 42.3777 18.9245C42.4144 18.9286 42.4516 18.924 42.4861 18.911C42.5206 18.898 42.5516 18.8769 42.5764 18.8496C42.2608 18.7737 41.9396 18.7232 41.616 18.6984Z" fill="white"/>
<path d="M44.0035 19.0253C43.9221 19.1029 43.826 19.1636 43.721 19.2039C43.6159 19.2442 43.504 19.2633 43.3915 19.26C43.0891 19.2485 43.0272 18.9547 43.1856 18.7186C43.344 18.4824 43.6579 18.252 43.9243 18.3802C43.9821 18.4087 44.0319 18.4512 44.0692 18.5038C44.1065 18.5564 44.1301 18.6174 44.138 18.6814C44.1458 18.7453 44.1376 18.8103 44.1142 18.8703C44.0907 18.9303 44.0527 18.9836 44.0035 19.0253Z" fill="#7F3E3B"/>
<path d="M42.8213 18.059C42.7968 18.1282 42.7392 18.1699 42.6931 18.1541C42.647 18.1382 42.6326 18.0662 42.6586 17.9971C42.6845 17.928 42.7406 17.8862 42.7867 17.9035C42.8328 17.9208 42.8472 17.9899 42.8213 18.059Z" fill="#263238"/>
<path d="M41.9617 17.7351C41.9357 17.8042 41.8781 17.8459 41.8335 17.8286C41.7889 17.8114 41.773 17.7423 41.7975 17.6731C41.822 17.604 41.881 17.5608 41.9257 17.5781C41.9703 17.5954 41.9861 17.6659 41.9617 17.7351Z" fill="#263238"/>
<path d="M42.2453 17.8459C42.0783 18.0193 41.8884 18.169 41.6808 18.2909C41.7137 18.3433 41.7574 18.388 41.8091 18.4221C41.8608 18.4561 41.9192 18.4786 41.9803 18.4882L42.2453 17.8459Z" fill="#630F0F"/>
<path d="M43.1424 17.7638C43.1495 17.766 43.157 17.766 43.164 17.7638C43.17 17.7632 43.1757 17.7613 43.1809 17.7582C43.186 17.7552 43.1904 17.7511 43.1939 17.7461C43.1973 17.7412 43.1996 17.7356 43.2007 17.7297C43.2017 17.7239 43.2015 17.7178 43.2 17.712C43.1883 17.6438 43.1603 17.5794 43.1184 17.5243C43.0766 17.4691 43.0221 17.4249 42.9595 17.3952C42.949 17.3914 42.9375 17.3918 42.9273 17.3964C42.917 17.401 42.909 17.4093 42.9048 17.4197C42.9025 17.4249 42.9012 17.4305 42.9011 17.4361C42.901 17.4418 42.9021 17.4475 42.9042 17.4527C42.9064 17.458 42.9096 17.4627 42.9137 17.4667C42.9177 17.4707 42.9226 17.4738 42.9279 17.4758C42.9767 17.5004 43.0191 17.5359 43.0519 17.5796C43.0846 17.6234 43.1067 17.6741 43.1165 17.7278C43.1172 17.7356 43.1199 17.7431 43.1245 17.7494C43.1291 17.7558 43.1353 17.7607 43.1424 17.7638Z" fill="#263238"/>
<path d="M41.7701 17.28C41.7764 17.2831 41.7833 17.2847 41.7903 17.2847C41.7973 17.2847 41.8042 17.2831 41.8105 17.28C41.8527 17.2461 41.9025 17.2228 41.9556 17.212C42.0087 17.2012 42.0636 17.2033 42.1157 17.2181C42.121 17.2201 42.1267 17.2211 42.1323 17.2209C42.138 17.2207 42.1435 17.2193 42.1487 17.2169C42.1538 17.2145 42.1584 17.211 42.1621 17.2068C42.1658 17.2025 42.1687 17.1976 42.1705 17.1922C42.1725 17.1869 42.1734 17.1812 42.1732 17.1756C42.173 17.1699 42.1717 17.1644 42.1692 17.1592C42.1668 17.1541 42.1634 17.1496 42.1591 17.1458C42.1549 17.1421 42.1499 17.1392 42.1445 17.1375C42.0792 17.1174 42.0099 17.1135 41.9427 17.126C41.8755 17.1386 41.8123 17.1672 41.7586 17.2095C41.7539 17.2127 41.7499 17.2169 41.7469 17.2218C41.7439 17.2267 41.742 17.2321 41.7411 17.2378C41.7403 17.2435 41.7407 17.2493 41.7422 17.2548C41.7437 17.2603 41.7464 17.2655 41.75 17.2699C41.7555 17.2753 41.7625 17.2788 41.7701 17.28Z" fill="#263238"/>
<path d="M45.4608 22.2855C45.5414 22.7175 45.5961 23.1207 45.6523 23.5397C45.7084 23.9587 45.743 24.3778 45.7747 24.8011C45.8064 25.2245 45.8236 25.6522 45.8193 26.0871C45.8205 26.5433 45.7771 26.9986 45.6897 27.4464L45.6825 27.4795C45.665 27.5643 45.6269 27.6434 45.5716 27.7099C45.3548 27.9649 45.1215 28.2054 44.8732 28.4299C44.6356 28.6488 44.3851 28.8475 44.136 29.0448C43.8868 29.2421 43.6276 29.4207 43.367 29.5978C43.1064 29.7749 42.8428 29.9405 42.562 30.0989C42.4889 30.1409 42.4029 30.1547 42.3203 30.1377C42.2377 30.1208 42.1642 30.0741 42.1135 30.0067C42.0629 29.9392 42.0387 29.8556 42.0454 29.7715C42.0522 29.6875 42.0894 29.6088 42.1502 29.5503L42.7996 28.9123C43.0142 28.6992 43.2316 28.4803 43.4376 28.2701C43.8483 27.8602 44.2285 27.4208 44.5752 26.9554L44.4556 27.2189C44.4988 26.8515 44.5108 26.481 44.4916 26.1115C44.4744 25.7213 44.4441 25.3239 44.4052 24.9264C44.3664 24.529 44.3145 24.1272 44.2612 23.7269C44.208 23.3266 44.1475 22.9219 44.0899 22.5331V22.5245C44.0662 22.3466 44.1126 22.1664 44.2192 22.022C44.3258 21.8776 44.4842 21.7802 44.6612 21.7503C44.8382 21.7204 45.0199 21.7604 45.168 21.8619C45.316 21.9633 45.4189 22.1183 45.455 22.2941L45.4608 22.2855Z" fill="#7F3E3B"/>
<path d="M44.5926 21.2414C45.9462 21.8002 45.7935 23.7168 45.7935 23.7168C45.2996 24.3418 44.7509 24.8299 44.0353 24.8904C43.6506 24.4681 43.4442 23.9134 43.4593 23.3424C43.465 22.5778 43.6033 20.8339 44.5926 21.2414Z" fill="white"/>
<path d="M42.6629 29.2407L41.7413 29.2968L42.1157 30.3408C42.1157 30.3408 42.9452 30.1882 42.9351 29.7346L42.6629 29.2407Z" fill="#7F3E3B"/>
<path d="M41.099 30.0125L41.292 30.3552C41.3291 30.4215 41.3886 30.4724 41.4599 30.4988C41.5311 30.5252 41.6094 30.5253 41.6808 30.4992L42.1128 30.3408L41.7384 29.2968L41.2243 29.5719C41.1868 29.5923 41.1539 29.62 41.1272 29.6533C41.1006 29.6866 41.0809 29.7249 41.0692 29.7659C41.0576 29.8069 41.0542 29.8499 41.0593 29.8922C41.0644 29.9345 41.0779 29.9754 41.099 30.0125Z" fill="#7F3E3B"/>
<path d="M43.4361 20.7432C43.3973 20.9506 43.223 21.6403 42.2957 21.6951C42.6182 21.7944 42.6341 22.6267 42.6341 22.6267C42.6341 22.6267 43.6421 21.7829 43.727 21.0298C43.6982 20.8325 43.4361 20.7432 43.4361 20.7432Z" fill="#326BF1"/>
<path d="M42.1056 20.4091C42.0681 20.6107 41.7614 20.952 41.8176 21.5611C41.4936 21.4675 41.014 21.9586 41.014 21.9586C41.1269 21.4245 41.3686 20.9262 41.7182 20.507C41.8385 20.4462 41.9708 20.4128 42.1056 20.4091Z" fill="#326BF1"/>
</svg>
