<svg width="719" height="498" viewBox="0 0 719 498" fill="none" xmlns="http://www.w3.org/2000/svg">
<g opacity="0.4">
<path opacity="0.504511" fill-rule="evenodd" clip-rule="evenodd" d="M664.084 400.639C673.286 456.783 450.111 493.403 258.018 467.847C65.9259 442.29 -22.197 342.489 69.4663 289.31C161.13 236.132 654.882 344.495 664.084 400.639Z" fill="#F2F2F2"/>
<path fill-rule="evenodd" clip-rule="evenodd" d="M392.75 141.194C387.827 139.203 381.265 141.512 384.002 146.775C386.935 152.411 397.776 152.481 403.899 152.369C403.286 152.343 401.313 147.175 400.637 146.394C398.645 144.09 395.776 142.42 392.75 141.194ZM449.467 242.24C450.709 243.106 449.568 242.322 449.467 242.24V242.24ZM388.008 166.686C385.127 168.482 384.99 171.653 387.343 173.799C390.145 176.354 395.261 176.261 399.08 176.012C400.808 175.9 410.033 175.297 407.846 174.066C408.014 174.118 408.366 174.243 408.742 174.414C408.944 175.017 409.156 175.618 409.378 176.216C409.323 176.242 409.277 176.27 409.219 176.295C409.282 176.273 409.326 176.249 409.381 176.226C411.6 182.204 414.757 187.896 418.892 193.221C417.345 192.724 415.743 192.348 414.118 192.181C409.305 191.684 399.181 194.735 404.565 199.961C409.726 204.971 417.762 199.596 423.62 198.855C429.302 205.323 435.567 211.521 442.132 217.513C441.73 217.615 441.377 217.829 441.174 218.163C438.541 217.073 435.796 215.514 433.358 215.092C429.841 214.483 422.628 214.115 419.97 216.683C416.7 219.84 420.205 222.405 424.068 223.011C429.67 223.889 437.003 221.657 442.393 220.148C443.009 220.237 443.683 220.09 444.085 219.688C444.204 219.656 444.323 219.625 444.439 219.594C451.087 225.557 457.99 231.322 464.851 236.961C464.778 236.958 464.705 236.954 464.629 236.951C462.839 235.994 460.92 235.208 458.839 234.797C454.025 233.84 448.362 233.835 444.455 236.676C440.564 239.504 439.186 244.451 443.212 247.627C451.269 253.985 463.141 239.489 467.205 238.884C474.177 244.554 481.55 249.852 489.038 255.043C488.188 254.832 487.316 254.677 486.414 254.607C479.071 254.034 461.836 261.376 470.847 268.6C478.7 274.895 487.79 262.779 494.118 258.541C501.175 263.38 508.27 268.185 515.165 273.177C511.405 272.363 507.77 272.243 503.738 273.236C499.566 274.266 492.835 276.835 495.472 281.429C498.154 286.101 506.238 283.975 510.448 282.492C512.745 281.683 517.349 278.953 521.391 277.803C532.395 286.276 541.926 295.608 549.141 306.602C553.646 313.466 557.064 320.8 559.471 328.338C561.006 333.149 564.032 341.229 563.427 347.491C566.314 334.957 561.093 319.903 555.469 308.7C550.297 298.398 542.557 289.354 533.492 281.214C535.767 275.633 554.915 267.584 543.468 262.399C537.389 259.657 531.163 264.206 529.835 269.024C528.922 272.335 530.312 276.495 531.788 279.708C528.936 277.226 525.972 274.825 522.917 272.503C518.695 269.293 514.372 266.177 510.008 263.101C517.199 257.59 524.006 241.836 514.363 239.26C500.124 235.466 506.98 256.955 507.973 260.982C508.255 260.996 508.475 260.926 508.637 260.777C508.557 261.146 508.464 261.54 508.351 261.938C499.998 256.08 491.521 250.337 483.323 244.339C484.062 243.894 485.236 242.192 486.159 241.287C488.241 239.245 490.234 237.113 491.69 234.725C493.991 230.951 496.209 224.931 490.111 222.712C483.48 220.293 480.328 227.101 480.282 231.163C480.251 233.972 481.189 236.64 481.677 239.393C481.83 240.252 481.242 244.123 482.676 242.458C482.608 243.072 482.599 243.516 482.632 243.831C481.16 242.749 479.7 241.655 478.249 240.553C478.316 240.414 478.366 240.262 478.377 240.087C478.455 238.876 476.961 238.409 475.914 238.764C473.999 237.28 472.103 235.777 470.24 234.244C466.293 230.997 462.289 227.657 458.312 224.246C459.175 223.642 458.832 222.805 459.639 222.163C460.444 221.522 462.031 221.168 462.978 220.574C465.361 219.077 467.336 216.896 468.765 214.75C471.124 211.203 474.173 203.764 467.281 202.074C460.178 200.329 456.573 207.49 456.116 211.967C456.027 212.835 456.824 220.65 457.433 223.488C450.075 217.149 442.838 210.572 436.281 203.88C438.269 203.865 443.906 200.543 445.045 199.637C447.825 197.425 452.245 192.54 447.371 189.954C443.037 187.661 437.695 190.983 435.841 194.211C435.537 194.742 434.463 199.689 434.379 201.909C431.665 199.071 429.076 196.217 426.668 193.353C425.062 191.45 423.561 189.496 422.156 187.5C422.495 187.344 422.813 187.071 423.113 186.732C430.341 185.732 439.557 176.533 431.066 173.333C427.024 171.811 422.64 174.953 420.66 177.524C420.254 178.051 419.597 180.696 419.063 182.782C415.022 176.171 411.935 169.172 409.585 161.996C410.214 161.869 410.747 161.477 410.818 160.802C414.327 159.171 417.098 157.812 419.548 154.674C421.07 152.725 423.811 148.272 419.339 147.19C413.519 145.783 409.864 153.033 409.388 156.603C409.332 157.018 409.334 158.223 409.353 159.328C409.151 159.306 408.947 159.308 408.747 159.337C407.41 154.894 406.343 150.393 405.495 145.884C408.671 145.051 409.221 131.445 407.106 129.508C402.379 125.17 399.044 131.436 399.296 134.748C399.594 138.653 401.764 142.205 404.347 145.358C404.624 145.691 404.545 145.675 404.617 145.21C404.657 145.44 404.751 145.61 404.891 145.732C404.757 147.788 404.498 149.892 404.622 151.711C404.98 156.92 405.724 162.159 406.804 167.301C407.067 168.551 407.368 169.792 407.705 171.021C405.152 169.247 401.71 167.671 400.363 167.178C396.867 165.9 391.48 164.521 388.008 166.686ZM563.837 347.508C563.674 349.325 563.273 350.988 562.522 352.359C563.085 350.798 563.517 349.175 563.837 347.508Z" fill="#F2F2F2"/>
<path opacity="0.2" fill-rule="evenodd" clip-rule="evenodd" d="M210.51 31.9974C214.026 30.5753 218.713 32.2246 216.758 35.9839C214.663 40.0095 206.919 40.0593 202.546 39.9795C202.983 39.9608 204.393 36.2692 204.876 35.7114C206.299 34.0658 208.348 32.8732 210.51 31.9974ZM170.024 105.348C168.782 106.214 169.923 105.429 170.024 105.348V105.348ZM214.596 50.6879C216.699 51.9858 216.798 54.2787 215.079 55.8314C213.031 57.68 209.296 57.6142 206.507 57.4354C205.246 57.3543 198.511 56.9215 200.108 56.0305C199.985 56.068 199.729 56.1591 199.454 56.2828C199.306 56.7188 199.151 57.1533 198.989 57.5858C199.028 57.6045 199.062 57.6246 199.105 57.6432C199.059 57.627 199.026 57.6094 198.986 57.593C197.364 61.9163 195.056 66.0331 192.034 69.8849C193.164 69.5252 194.334 69.2527 195.521 69.1312C199.035 68.7708 206.425 70.9733 202.492 74.754C198.721 78.3783 192.857 74.4941 188.58 73.9599C184.428 78.6386 179.851 83.1226 175.055 87.457C175.348 87.5312 175.606 87.6859 175.754 87.9269C177.677 87.138 179.682 86.0098 181.462 85.7039C184.03 85.263 189.297 84.9941 191.237 86.8502C193.623 89.1325 191.063 90.9882 188.242 91.4272C184.151 92.064 178.798 90.4521 174.863 89.3631C174.413 89.4275 173.922 89.3214 173.628 89.0306C173.541 89.0077 173.454 88.9851 173.37 88.9631C168.513 93.2764 163.47 97.4474 158.458 101.527C158.511 101.525 158.564 101.522 158.62 101.52C159.927 100.827 161.329 100.258 162.849 99.9602C166.364 99.2668 170.499 99.2617 173.35 101.315C176.189 103.359 177.194 106.935 174.253 109.233C168.367 113.833 159.706 103.354 156.738 102.918C151.645 107.021 146.26 110.854 140.79 114.61C141.411 114.457 142.048 114.344 142.706 114.293C148.068 113.877 160.649 119.181 154.065 124.407C148.329 128.961 141.698 120.203 137.079 117.141C131.925 120.641 126.742 124.118 121.705 127.73C124.451 127.14 127.105 127.052 130.049 127.769C133.094 128.513 138.008 130.368 136.08 133.691C134.12 137.07 128.219 135.535 125.145 134.464C123.469 133.88 120.108 131.907 117.157 131.077C109.119 137.207 102.156 143.958 96.8828 151.91C93.5906 156.875 91.0914 162.179 89.3311 167.63C88.2076 171.109 85.9944 176.953 86.4339 181.48C84.3313 172.418 88.1503 161.531 92.2621 153.429C96.0427 145.978 101.698 139.436 108.321 133.547C106.662 129.512 92.6848 123.697 101.045 119.945C105.485 117.961 110.028 121.248 110.996 124.731C111.661 127.125 110.644 130.133 109.565 132.457C111.649 130.662 113.814 128.924 116.046 127.245C119.13 124.923 122.288 122.668 125.476 120.442C120.227 116.46 115.265 105.07 122.306 103.204C132.705 100.457 127.689 115.997 126.962 118.91C126.756 118.919 126.595 118.869 126.477 118.762C126.536 119.028 126.603 119.313 126.685 119.601C132.787 115.362 138.979 111.207 144.967 106.867C144.428 106.546 143.572 105.316 142.898 104.661C141.379 103.186 139.925 101.644 138.863 99.9181C137.185 97.1899 135.568 92.8379 140.021 91.2309C144.864 89.4801 147.162 94.4022 147.194 97.339C147.215 99.3701 146.529 101.3 146.171 103.291C146.06 103.912 146.487 106.71 145.441 105.507C145.49 105.951 145.497 106.272 145.472 106.5C146.547 105.717 147.614 104.926 148.674 104.129C148.625 104.028 148.589 103.918 148.581 103.791C148.524 102.916 149.615 102.578 150.38 102.834C151.779 101.76 153.164 100.673 154.524 99.5641C157.408 97.2149 160.333 94.7987 163.238 92.331C162.608 91.8941 162.859 91.2887 162.27 90.8249C161.683 90.3621 160.524 90.1065 159.833 89.6767C158.094 88.595 156.652 87.0187 155.61 85.4672C153.889 82.9036 151.667 77.5253 156.699 76.301C161.886 75.0371 164.516 80.2142 164.847 83.4514C164.911 84.0786 164.327 89.73 163.88 91.7823C169.256 87.1962 174.543 82.4382 179.333 77.5977C177.881 77.5874 173.768 75.1869 172.936 74.5318C170.907 72.9338 167.682 69.4024 171.242 67.5315C174.408 65.872 178.307 68.272 179.658 70.6056C179.881 70.9898 180.663 74.5667 180.723 76.1717C182.706 74.119 184.597 72.0543 186.357 69.983C187.53 68.6059 188.627 67.1925 189.653 65.749C189.407 65.6361 189.175 65.4392 188.955 65.1942C183.678 64.4729 176.954 57.8244 183.154 55.5076C186.106 54.406 189.306 56.6762 190.75 58.5352C191.046 58.9156 191.525 60.8282 191.914 62.3368C194.867 57.5551 197.125 52.4932 198.844 47.3034C198.384 47.2115 197.995 46.9282 197.945 46.4406C195.383 45.2617 193.36 44.2801 191.573 42.0119C190.463 40.603 188.463 37.384 191.729 36.6005C195.979 35.5809 198.644 40.822 198.99 43.404C199.031 43.7037 199.029 44.5754 199.014 45.3742C199.162 45.3579 199.311 45.3597 199.457 45.3805C200.435 42.167 201.216 38.9122 201.837 35.6519C199.519 35.05 199.124 25.212 200.669 23.8106C204.122 20.6725 206.555 25.2025 206.369 27.5973C206.149 30.421 204.564 32.9902 202.676 35.2706C202.473 35.512 202.531 35.5003 202.479 35.164C202.45 35.3303 202.381 35.453 202.279 35.5419C202.375 37.0281 202.564 38.5498 202.472 39.865C202.209 43.6316 201.663 47.4202 200.872 51.1385C200.68 52.0428 200.459 52.9398 200.212 53.829C202.077 52.5455 204.591 51.4048 205.575 51.048C208.128 50.1228 212.062 49.1234 214.596 50.6879ZM86.0163 181.123C86.1395 182.333 86.5055 183.438 87.226 184.343C86.6971 183.308 86.3004 182.231 86.0163 181.123Z" fill="#C1DEE2"/>
<g opacity="0.7">
<path fill-rule="evenodd" clip-rule="evenodd" d="M488.5 264.22C502.172 263.642 519.079 270.151 520.538 282.271C521.598 291.078 521.269 299.859 522.909 308.653C524.22 315.681 526.993 322.427 530.775 328.829C534.412 334.985 541.956 340.225 543.918 346.802C545.168 350.992 544.468 356.887 542.744 360.985C540.647 365.969 541.761 365.575 545.94 369.757C554.129 377.952 561.503 386.355 566.717 396.142C574.228 410.239 579.152 426.717 576.364 442.149C576.01 444.108 575.589 451.14 572.281 451.632C568.586 452.181 570.314 448.16 570.511 446.86C571.768 438.571 572.885 431.325 571.369 422.906C565.517 390.424 536.946 369.022 518.343 341.453C517.32 340.031 515.161 336.646 513.66 334.413C511.29 330.887 508.908 324.177 505.7 321.562C499.657 316.637 505.212 326.539 506.39 328.43C507.878 330.821 509.516 333.362 511.041 335.458C518.021 345.17 525.812 355.772 533.02 365.784C501.844 371.578 479.887 341.008 471.521 320.91C464.627 304.351 456.38 265.637 488.5 264.22Z" fill="#69A1AC"/>
<path fill-rule="evenodd" clip-rule="evenodd" d="M671.739 233.471C648.885 234.95 634.213 247.25 627.383 264.454C623.702 273.726 623.28 283.25 621.234 292.778C618.157 307.112 611.536 317.975 598.596 328.188C594.588 331.351 591.635 334.598 589.535 338.073C585.367 341.541 581.739 345.467 579.074 350.266C575.669 356.395 574.706 363.749 578.637 369.859C579.694 371.502 582.33 374.8 585.063 376.298C574.832 394.07 569.206 413.535 569.84 432.975C570.224 444.71 570.926 456.45 571.745 468.17C571.966 471.317 573.223 476.514 575.11 471.236C576.837 466.409 574.671 458.83 574.471 453.787C573.495 429.218 572.662 406.879 585.062 383.925C586.362 381.519 587.741 379.133 589.176 376.765C589.261 376.726 589.339 376.677 589.418 376.631C589.473 376.665 589.523 376.702 589.577 376.736C589.669 376.602 589.795 376.444 589.941 376.266C590.353 375.92 590.712 375.482 591.054 374.993C592.154 373.75 593.399 372.289 593.406 371.49C593.406 371.483 593.402 371.474 593.402 371.468C601.078 361.247 609.87 351.59 618.851 342.122C618.783 342.191 628.592 331.299 627.075 337.323C626.344 340.225 619.129 345.754 616.216 348.828C609.77 355.669 602.2 364.337 595.91 372.718C595.064 373.115 593.868 375.063 593.003 376.514C592.526 377.249 592.08 377.99 591.642 378.636C613.93 384.642 631.268 372.544 643.09 358.472C643.104 358.456 643.117 358.439 643.13 358.422C646.728 354.534 650.413 350.673 655.017 347.6C662.699 342.471 670.925 341.566 679.981 339.042C704.679 332.159 715.18 306.053 718.515 286.682C722.278 264.828 703.873 231.316 671.739 233.471Z" fill="#89C5CC"/>
<path fill-rule="evenodd" clip-rule="evenodd" d="M626.594 172.271C603.137 192.183 591.805 219.801 582.832 245.764C572.81 274.762 566.19 304.208 565.936 334.358C565.77 354.166 565.109 374.098 566.526 393.883C567.029 400.91 567.888 407.949 569.254 414.9C569.366 415.471 572.421 430.992 575.344 427.376C577.007 425.319 572.213 411.275 571.851 408.936C569.813 395.761 569.339 382.489 569.439 369.219C569.602 347.371 568.812 325.634 571.527 303.866C571.932 300.616 572.252 297.202 573.199 294.023C574.204 290.642 572.924 292.118 576.197 290.78C579.378 289.479 583.309 289.665 586.609 288.033C599.7 281.558 606.396 264.928 611.608 254.016C617.57 241.538 621.193 228.232 624.087 215.1C626.211 205.452 627.731 195.863 628.59 186.091C628.861 183.011 628.877 179.79 629.619 176.762C629.819 175.945 630.822 174.5 630.786 173.776C630.709 172.245 629.576 171.345 629.483 170.058C628.501 170.779 627.537 171.517 626.594 172.271Z" fill="#89C5CC"/>
<path fill-rule="evenodd" clip-rule="evenodd" d="M498.693 437.561C498.693 470.489 531.422 497.184 571.795 497.184C612.168 497.184 644.897 470.489 644.897 437.561" fill="#89C5CC"/>
<path fill-rule="evenodd" clip-rule="evenodd" d="M577.662 437.751H573.8C574.068 433.798 574.422 429.852 575.232 425.944C578.331 410.995 588.02 389.039 609.269 386.612C610.053 386.522 612.937 386.507 616.43 386.674C618.086 385.919 619.94 385.463 621.894 385.358C639.987 384.27 660.191 396.175 668.918 408.563C675.953 418.552 674.768 431.668 670.423 442.28C667.513 449.384 661.162 459.514 650.571 459.612C637.321 459.736 636.682 446.379 636.426 438.57C636.085 428.189 634.477 419.146 624.448 412.069C622.11 410.421 619.555 408.971 617.194 407.345C613.497 404.801 609.411 402.195 608.935 397.986C608.277 392.179 612.296 391.134 618.433 392.213C619.479 392.396 630.017 396.253 628.457 393.204C627.98 392.273 626.241 391.535 624.045 390.982C618.362 390.479 611.586 389.894 609.637 390.243C588.612 394.005 580.426 417.759 578.252 432.851C578.018 434.48 577.828 436.114 577.662 437.751Z" fill="#69A1AC"/>
</g>
<g opacity="0.5">
<path fill-rule="evenodd" clip-rule="evenodd" d="M178.47 155.326C182.678 150.432 190.488 138.003 196.41 136.254C200.225 135.128 199.113 146.779 199.16 149.001C199.344 157.596 198.318 166.137 197.051 174.66C194.768 190.031 187.304 203.721 177.067 216.803C171.799 223.535 165.621 230.349 157.063 234.549C153.124 236.483 148.384 236.807 144.494 238.474C139.963 240.414 142.43 238.846 140.389 242.696C137.553 248.043 136.646 254.94 135.334 260.644C129.31 286.831 114.727 425.263 117.255 451.9C117.48 454.261 113.443 454.826 113.242 451.943C112.171 436.661 121.438 330.828 126.114 296.218C130.789 261.607 135.521 231.031 140.265 219.057C146.021 204.529 156.416 187.06 165.069 173.512C169.088 167.219 173.469 161.142 178.47 155.326Z" fill="#69A1AC"/>
<path fill-rule="evenodd" clip-rule="evenodd" d="M209.708 325.074C220.659 318.518 232.511 330.892 222.603 337.45C217.125 341.075 211.398 339.786 208.174 336.765C206.081 338.846 204.122 341.021 202.24 342.859C196.505 348.459 191.085 354.192 185.905 360.059C175.144 372.248 165.922 385.125 156.28 397.766C146.765 410.242 137.325 422.783 128.701 435.575C121.394 446.414 111.656 459.164 109.154 471.046C112.95 445.847 127.351 421.625 144.502 399.409C161.512 377.376 181.033 353.314 207.372 335.926C204.691 332.711 204.617 328.121 209.708 325.074Z" fill="#C1DEE2"/>
<path fill-rule="evenodd" clip-rule="evenodd" d="M1.91586 263.616C8.04363 264.594 18.0563 275.9 23.1075 280.207C29.1104 285.326 34.5565 290.783 39.6901 296.499C50.7417 308.805 60.6255 321.887 69.03 335.531C82.7316 357.772 93.7083 380.603 101.675 404.822C106.551 419.648 109.708 435.014 111.58 450.272C111.933 453.15 115.632 475.337 110.302 475.935C105.508 476.473 106.989 459.088 106.757 456.723C104.143 430.044 96.3113 404.085 85.4174 378.938C83.0445 373.46 80.8401 366.75 77.0454 361.821C74.3126 358.27 77.0258 359.508 72.2233 358.164C68.0997 357.01 63.4014 357.292 59.1786 355.879C50.0052 352.81 42.6599 346.854 36.2213 340.862C23.7088 329.218 13.7932 316.621 8.62464 301.701C5.75748 293.428 3.12271 285.107 1.66057 276.579C1.28234 274.375 -2.03099 262.987 1.91586 263.616Z" fill="#69A1AC"/>
<path fill-rule="evenodd" clip-rule="evenodd" d="M26.0985 75.5066C49.1806 108.156 68.1485 144.02 80.3962 180.345C87.8168 202.354 93.0063 224.939 98.1624 247.36C106.146 282.077 113.697 316.79 115.845 352.124C118.006 387.662 122.28 428.651 108.012 462.879C115.139 428.128 108.354 391.138 107.152 356.171C106.578 339.478 104.914 322.948 102.732 306.353C100.614 290.255 97.1544 274.233 93.9325 258.261C92.363 250.483 90.7147 242.716 89.0366 234.954C88.5356 232.638 88.3239 225.765 86.5227 224.183C84.7098 222.591 75.4602 221.941 72.5562 220.773C66.7086 218.419 61.2082 215.076 56.3401 211.544C47.0081 204.772 38.8896 195.925 32.4819 187.203C17.6561 167.022 11.7288 142.394 12.0284 119.022C12.0859 114.484 21.0335 65.6189 17.44 64.946C17.6564 64.7393 17.861 64.5259 18.054 64.304C20.7746 68.0192 23.4443 71.7596 26.0985 75.5066Z" fill="#89C5CC"/>
<path fill-rule="evenodd" clip-rule="evenodd" d="M275.23 193.258C275.586 192.839 277.904 189.925 276.737 190.112C279.114 189.732 273.468 193.325 279.39 191.121C276.578 193.286 278.201 196.1 278.238 199.015C278.3 203.747 277.329 208.441 276.236 213.072C274.509 220.392 271.937 227.509 268.203 234.318C260.064 249.155 246.245 263.439 229.839 272.716C221.74 277.296 213.802 278.855 204.565 280.963C198.731 282.296 198.268 284.757 195.171 289.375C188.723 298.993 182.39 308.576 176.704 318.519C169.914 330.391 163.323 342.277 157.106 354.358C136.16 395.054 119.112 437.215 110.159 480.847C109.94 455.135 117.233 428.653 126.432 404.145C133.133 386.288 141.857 369.075 151.161 352.037C153.416 347.909 156.833 342.599 157.79 338.042C158.461 334.849 156.411 331.778 155.472 328.414C151.814 315.316 152.076 300.641 155.289 287.472C158.831 272.952 169.076 266.212 186.406 264.155C192.743 263.403 200.799 263.678 206.611 261.474C212.942 259.074 215.554 251.185 219.155 246.12C228.825 232.516 240.315 219.469 253.509 208.007C257.162 204.833 261.091 201.904 265.259 199.19C267.887 197.478 273.439 195.368 275.23 193.258Z" fill="#89C5CC"/>
<path fill-rule="evenodd" clip-rule="evenodd" d="M80.9031 453.078H142.406C145.171 453.078 147.413 454.906 147.413 457.162C147.413 457.361 147.395 457.56 147.359 457.758L142.606 484.048C141.157 492.062 132.725 498 122.792 498H100.517C90.5844 498 82.1525 492.062 80.7033 484.048L75.9497 457.758C75.5463 455.526 77.437 453.451 80.1726 453.122C80.4145 453.093 80.6587 453.078 80.9031 453.078Z" fill="#C1DEE2"/>
</g>
<path fill-rule="evenodd" clip-rule="evenodd" d="M25.457 466.52C25.457 483.906 27.1393 498.001 49.7186 498.001C72.298 498.001 73.9803 483.906 73.9803 466.52" fill="#F2F2F2"/>
<path fill-rule="evenodd" clip-rule="evenodd" d="M56.4356 455.671C55.6079 456.838 54.87 458.029 54.2181 459.237C54.1951 456.749 54.3638 454.242 54.8245 451.701C55.6121 447.348 56.8149 443.018 57.9452 438.694C58.7575 435.587 58.7062 430.007 61.7891 427.531C62.6344 426.996 62.8379 428.046 62.8379 428.501C62.8486 428.598 62.8356 426.642 62.015 426.983C57.1376 429.037 55.5572 435.497 53.9957 438.732C51.7175 443.453 49.779 448.279 48.9808 453.191C48.7791 454.432 48.6694 455.673 48.644 456.911C48.4782 456.58 48.3225 456.246 48.1502 455.916C45.3352 450.531 41.5361 445.276 36.7979 440.431C35.6317 439.238 20.967 427.473 19.819 429.274C19.9323 429.535 20.1694 429.752 20.531 429.925C20.5523 429.945 20.5529 429.934 20.5405 429.904C21.4017 431.039 23.8505 432.792 24.6132 433.786C26.5328 436.288 28.0247 438.943 29.5408 441.548C32.744 447.052 35.7154 452.612 38.596 458.184C39.2667 459.481 39.9658 460.772 40.679 462.058C33.3269 453.409 23.519 445.557 10.0176 441.062C14.6289 442.975 17.6523 446.575 20.7664 449.332C24.5224 452.656 28.4784 455.892 32.2414 459.213C36.6799 463.13 41.9025 467.256 46.1717 471.591C50.307 478.672 54.3255 485.761 56.8061 493.205C55.7896 490.633 56.7264 487.079 56.5524 484.38C56.4144 482.231 56.1064 480.101 55.6846 477.974C56.2061 478.933 56.6556 479.893 56.8591 480.786C56.6733 479.288 56.4592 477.8 56.2291 476.32C56.8196 474.934 57.3995 473.64 57.7912 472.575C59.7987 467.11 62.189 461.738 65.4442 456.503C68.4563 451.661 71.9114 446.88 75.6762 442.244C77.4324 440.083 79.2128 437.93 80.9819 435.774C82.1399 434.362 83.2425 432.101 84.8547 430.748C74.4333 438.519 63.0474 446.347 56.4356 455.671Z" fill="#F2F2F2"/>
<path fill-rule="evenodd" clip-rule="evenodd" d="M688.592 100.917C685.604 92.7888 678.59 86.4274 671.309 80.5988C657.134 69.2517 649.51 62.2359 644.458 45.6373C641.488 35.8753 638.464 25.5305 629.04 18.448C622.179 13.2904 610.37 8.9571 601.194 12.6504C587.077 19.5225 583.287 33.6253 584.71 46.2535C586.475 61.9053 595.439 71.5562 612.659 77.3211C622.363 80.5679 628.813 84.8521 634.08 92.3172C638.293 98.2864 640.75 105.761 646.044 111.173C653.96 119.262 663.865 122.858 676.074 121.514C664.639 104.353 651.277 87.0306 635.161 72.5817C633.653 71.129 624.755 65.569 626.55 63.0933C628.527 60.3675 637.661 70.607 637.596 70.5451C642.28 74.9299 646.613 79.5894 650.869 84.2936C650.858 84.2982 650.846 84.3007 650.834 84.3055C655.215 89.1326 659.562 94.0309 663.826 98.9905C665.55 101.088 667.229 103.213 668.835 105.391C671.193 108.587 674.935 117.658 678.794 119.623C679.619 120.043 680.382 120.278 681.096 120.375C683.728 123.891 686.29 127.434 688.726 131.02C695.088 140.385 700.548 150.273 703.055 160.846C703.786 163.932 703.269 175.475 705.851 177.703C710.573 181.778 709.19 173.931 708.908 171.563C706.562 151.949 697.929 135.24 685.395 118.751C689.245 114.65 689.801 104.21 688.592 100.917Z" fill="#F2F2F2"/>
<path fill-rule="evenodd" clip-rule="evenodd" d="M526.859 110.393C531.838 105.609 543.804 104.797 551.123 105.118C560.18 105.514 569.482 107.312 578.098 109.486C592.291 113.067 606.083 119.603 618.583 125.928C620.089 126.69 638.649 135.793 637.006 137.391C635.378 138.974 617.159 128.161 613.099 126.297C604.434 122.319 596.488 117.614 586.937 114.987C577.048 112.267 566.589 111.19 556.19 111.264C554.855 111.274 550.502 110.515 550.408 112.125C550.316 113.7 557.519 112.878 558.79 112.888C564.036 112.927 569.314 113.33 574.486 114.071C584.176 115.461 593.286 118.259 601.586 122.552C599.27 126.943 593.719 128.968 587.895 127.869C582.862 126.919 577.956 124.576 573.027 123.899C569.633 123.432 566.235 123.71 562.943 124.49C554.261 126.548 549.254 130.764 539.708 127.831C532.225 125.532 519.71 117.273 526.859 110.393Z" fill="#F2F2F2"/>
<path fill-rule="evenodd" clip-rule="evenodd" d="M532.494 65.1205H534.849C534.684 62.6828 534.469 60.2491 533.964 57.8387C532.071 48.8036 526.151 35.5335 513.169 34.067C512.69 34.0124 510.928 34.0032 508.794 34.1041C507.782 33.6481 506.649 33.3724 505.455 33.309C494.402 32.6514 482.058 39.8466 476.726 47.3342C472.428 53.3712 473.152 61.2986 475.807 67.7123C477.585 72.0062 481.465 78.1283 487.935 78.188C496.03 78.2627 496.421 70.1897 496.577 65.4702C496.785 59.1959 497.768 53.73 503.895 49.4532C505.324 48.4569 506.885 47.5804 508.327 46.5979C510.586 45.06 513.082 43.4855 513.373 40.9413C513.775 37.4314 511.319 36.7997 507.57 37.4518C506.931 37.5628 500.493 39.8937 501.446 38.0514C501.737 37.4885 502.8 37.0425 504.142 36.7084C507.613 36.4038 511.753 36.0504 512.944 36.2615C525.789 38.5353 530.79 52.8919 532.118 62.0133C532.269 63.0461 532.389 64.0825 532.494 65.1205Z" fill="#F2F2F2"/>
</g>
</svg>
